<svg width="140" height="71" viewBox="0 0 140 71" fill="none" xmlns="http://www.w3.org/2000/svg">
<path d="M0.528015 71V0.919998H20.88L36.144 40.184H36.336L51.6 0.919998H71.952V71H55.632V26.36H55.44L43.632 56.12H28.848L17.04 26.36H16.848V71H0.528015Z" fill="black"/>
<path d="M84.9968 71V0.919998H107.269C117.957 0.919998 125.925 2.968 131.173 7.064C136.485 11.16 139.141 17.368 139.141 25.688C139.141 33.752 136.645 39.896 131.653 44.12C126.661 48.28 119.333 50.36 109.669 50.36H93.1568V36.92H107.653C112.773 36.92 116.517 36.024 118.885 34.232C121.253 32.44 122.437 29.592 122.437 25.688C122.437 21.784 121.253 18.936 118.885 17.144C116.517 15.288 112.773 14.36 107.653 14.36H101.317V71H84.9968Z" fill="black"/>
</svg>
